<svg xmlns="http://www.w3.org/2000/svg" viewBox="0 0 64 64" width="64" height="64">
  <!-- White background with rounded corners -->
  <rect x="0" y="0" width="64" height="64" rx="8" ry="8" fill="white"/>
  
  <!-- Drone body (front view) -->
  <rect x="22" y="28" width="20" height="10" rx="3" fill="#4B5563" stroke="#1F2937" stroke-width="1"/>
  
  <!-- Camera gimbal -->
  <rect x="29" y="36" width="6" height="4" fill="#6B7280"/>
  <!-- Camera/Sensor -->
  <circle cx="32" cy="38" r="3" fill="#1F2937"/>
  <circle cx="32" cy="38" r="2" fill="#374151"/>
  <circle cx="32" cy="38" r="1" fill="#1F2937"/>
  
  <!-- Arms extending horizontally -->
  <!-- Left arm -->
  <rect x="8" y="31" width="14" height="3" fill="#6B7280" rx="1"/>
  <!-- Right arm -->
  <rect x="42" y="31" width="14" height="3" fill="#6B7280" rx="1"/>
  
  <!-- Motor mounts -->
  <!-- Left motor -->
  <circle cx="8" cy="32.5" r="3" fill="#374151"/>
  <!-- Right motor -->
  <circle cx="56" cy="32.5" r="3" fill="#374151"/>
  
  <!-- Propellers (front view - appearing as lines) -->
  <!-- Left propeller -->
  <rect x="6" y="20" width="4" height="1" fill="#374151"/>
  <ellipse cx="8" cy="20" rx="8" ry="0.5" fill="#9CA3AF" opacity="0.3"/>
  
  <!-- Right propeller -->
  <rect x="54" y="20" width="4" height="1" fill="#374151"/>
  <ellipse cx="56" cy="20" rx="8" ry="0.5" fill="#9CA3AF" opacity="0.3"/>
  
  <!-- Propeller support shafts -->
  <rect x="7.5" y="20" width="1" height="12" fill="#6B7280"/>
  <rect x="55.5" y="20" width="1" height="12" fill="#6B7280"/>
  
  <!-- Landing gear -->
  <rect x="18" y="38" width="2" height="8" fill="#6B7280" rx="1"/>
  <rect x="44" y="38" width="2" height="8" fill="#6B7280" rx="1"/>
  <!-- Landing skids -->
  <rect x="16" y="45" width="6" height="2" rx="1" fill="#6B7280"/>
  <rect x="42" y="45" width="6" height="2" rx="1" fill="#6B7280"/>
</svg>